<svg width="174" height="24" viewBox="0 0 174 24" fill="none" xmlns="http://www.w3.org/2000/svg">
<g clip-path="url(#clip0_4266_2184)">
<path d="M7.49162 10.7631H7.47158C6.55551 10.5997 5.66696 10.3089 4.83191 9.89913C4.57931 9.75842 4.37014 9.5514 4.2271 9.30051C4.08405 9.04963 4.01258 8.76446 4.02044 8.47593C4.0174 8.24926 4.06208 8.02448 4.15158 7.81612C4.24109 7.60776 4.37342 7.42046 4.54004 7.26633C5.0498 6.83911 5.70561 6.6255 6.36984 6.67033C7.25043 6.67852 8.12332 6.83485 8.95178 7.13273C9.58066 7.35802 10.2663 7.371 10.9033 7.16966C11.5403 6.96832 12.0934 6.56381 12.4775 6.01833L12.6122 5.80713C10.8098 4.60093 8.67384 3.9885 6.50455 4.05593C4.9547 3.98187 3.42781 4.45174 2.18903 5.38393C1.65718 5.79245 1.22971 6.32067 0.941521 6.92547C0.653334 7.53028 0.512603 8.19451 0.53082 8.86393C0.506334 9.51749 0.655771 10.1659 0.963933 10.7431C1.2721 11.3204 1.72799 11.8059 2.28525 12.1503C3.59046 12.8593 4.99946 13.3588 6.46045 13.6303C7.34889 13.7935 8.21168 14.0783 9.02234 14.4759C9.27632 14.6163 9.48745 14.8226 9.63329 15.0731C9.77914 15.3235 9.85425 15.6087 9.85065 15.8983C9.85358 16.3006 9.70964 16.6902 9.44571 16.9943C9.15829 17.2752 8.81251 17.4895 8.43284 17.6222C8.05318 17.755 7.64891 17.8028 7.24866 17.7623C6.0646 17.761 4.8926 17.525 3.80074 17.0679C3.18193 16.8013 2.49512 16.7342 1.83622 16.8759C1.19741 17.0048 0.623387 17.3512 0.212488 17.8559L0 18.1247C0.970186 18.8595 2.0582 19.4248 3.2178 19.7967C4.46466 20.1863 5.76365 20.3807 7.07065 20.3759C8.69989 20.4663 10.3111 19.9982 11.6372 19.0495C12.183 18.6308 12.6201 18.0875 12.9117 17.4652C13.2033 16.8429 13.3409 16.1599 13.313 15.4735C13.3325 14.8565 13.1962 14.2444 12.9167 13.6937C12.6372 13.1429 12.2234 12.6711 11.7133 12.3215C10.4144 11.5351 8.97547 11.0062 7.47559 10.7639M20.3227 4.34393H19.9378V20.0815H23.3858V7.41993C23.3921 7.01704 23.3169 6.61703 23.1646 6.24382C23.0124 5.87061 22.7863 5.53189 22.4997 5.24793C22.2181 4.95679 21.8795 4.72636 21.5051 4.57087C21.1307 4.41539 20.7283 4.33815 20.3227 4.34393ZM39.1091 11.5327L34.6773 4.34393H30.6889V20.0815H34.0222V9.16393L39.0698 16.8519L44.1375 9.10553V20.0807H47.5237V4.34313H43.5545L39.1091 11.5327ZM67.9129 9.72633C67.9488 8.97953 67.813 8.23443 67.5158 7.54806C67.2187 6.86169 66.7681 6.25223 66.1986 5.76633C64.8449 4.74627 63.1707 4.24187 61.4773 4.34393H54.8116V20.0815H55.1604C55.9773 20.0792 56.7601 19.7544 57.3376 19.178C57.9152 18.6016 58.2406 17.8205 58.2427 17.0055V15.2039H61.2296C62.9818 15.3022 64.7133 14.7851 66.1232 13.7423C66.7123 13.2563 67.1806 12.6409 67.4913 11.9441C67.8021 11.2474 67.947 10.4883 67.9145 9.72633H67.9129ZM63.599 7.78393C63.8976 8.04639 64.1325 8.3731 64.2859 8.73938C64.4394 9.10566 64.5075 9.50195 64.485 9.89833C64.5045 10.285 64.4327 10.6709 64.2753 11.0248C64.1179 11.3787 63.8794 11.6908 63.579 11.9359C62.8653 12.4351 62.0033 12.6799 61.1325 12.6303H58.2419V7.01833H61.1125C62.0068 6.96667 62.8897 7.23945 63.5982 7.78633M77.4292 4.34393H73.9997V20.0815H85.6746C85.6541 19.6967 85.5566 19.3199 85.3879 18.9733C85.2192 18.6266 84.9827 18.3172 84.6923 18.0631C84.1346 17.5255 83.387 17.2289 82.6115 17.2375H77.4284L77.4292 4.34393ZM104.094 7.07273V4.34313H91.6675V20.0799H104.211V17.3503H95.0393V13.5255H100.165C100.873 13.5255 101.554 13.2575 102.073 12.7759C102.636 12.3009 103.023 11.6509 103.172 10.9303H95.0409V7.06633L104.094 7.07193V7.07273ZM142.898 4.34393H139.469V20.0815H142.84V9.49113L151.106 20.0815H154.265V4.34393H150.893V14.5887L142.898 4.34393ZM173.86 4.34393H161.433V20.0815H173.995V17.3567H164.825V13.5263H169.927C170.635 13.5263 171.317 13.2583 171.836 12.7767C172.399 12.3017 172.785 11.6517 172.934 10.9311H164.823V7.06713H173.86V4.34393Z" fill="#17181D"/>
<path d="M125.448 23.4097C124.718 23.6657 123.965 23.8553 123.201 23.9761L123.432 23.8913L120.703 23.9553L121.481 23.7665L120.64 23.7225C120.653 23.7225 120.668 23.7089 120.681 23.6809C120.686 23.687 120.693 23.6919 120.7 23.6953C120.707 23.6989 120.715 23.7011 120.723 23.7017C120.728 23.6956 120.734 23.6907 120.741 23.6873C120.749 23.6836 120.757 23.6814 120.765 23.6809L120.785 23.6601H120.64L121.311 23.5129H121.332C121.319 23.5038 121.306 23.4972 121.291 23.4935C121.276 23.4898 121.261 23.489 121.246 23.4913L121.624 23.4489L120.696 23.3865L121.326 23.3449L120.575 23.2593L120.596 23.2177C120.872 23.0925 121.179 23.0489 121.479 23.0921C121.703 23.1705 121.938 23.2137 122.175 23.2177C122.427 23.1473 122.693 23.0641 122.973 22.9665L122.846 22.9249L122.175 22.9873L122.639 22.8625L122.072 22.7153L121.819 22.6945L121.942 22.6809L120.782 22.3673L120.908 22.3881C121.531 22.0112 122.213 21.7421 122.926 21.5921L122.295 21.6337L122.421 21.4881L122.757 21.3201L122.253 21.2785C122.408 21.2649 122.562 21.2441 122.716 21.2161L122.086 21.2785C122.095 21.2707 122.105 21.2649 122.116 21.2617C122.127 21.258 122.138 21.2567 122.149 21.2577L122.276 21.2161H122.406V21.2369C122.467 21.2121 122.529 21.1905 122.594 21.1745H122.469L122.741 21.1329L122.509 21.1121H122.424C122.614 21.0025 122.811 20.9041 123.012 20.8177C123.072 20.7886 123.136 20.7676 123.201 20.7553H123.118C123.234 20.6993 123.353 20.6497 123.475 20.6097L122.719 20.7353L123.328 20.5265C124.887 20.1957 126.308 19.3993 127.402 18.2433C128.201 17.4864 128.833 16.5724 129.26 15.5593C129.687 14.5461 129.898 13.4557 129.881 12.3569C129.896 11.2519 129.684 10.1557 129.257 9.1358C128.831 8.11592 128.2 7.19409 127.402 6.42726C126.143 5.12857 124.475 4.30056 122.677 4.08166C122.288 4.02775 121.895 4.00022 121.502 3.99926C120.398 3.98324 119.302 4.19032 118.281 4.60801C117.259 5.0257 116.333 5.64536 115.558 6.42966C114.979 7.01366 114.484 7.67526 114.088 8.39686C113.785 8.75542 113.518 9.14288 113.291 9.55366C112.923 10.6888 112.822 11.8934 112.997 13.0737C113.148 14.3185 113.542 15.5218 114.157 16.6153C112.948 14.6414 112.563 12.2729 113.086 10.0193C113.055 10.0584 113.029 10.1021 113.011 10.1489C112.934 10.4216 112.892 10.7031 112.886 10.9865H112.826C112.673 12.2106 112.781 13.4532 113.142 14.6329C113.118 14.5855 113.097 14.5363 113.08 14.4857L112.826 13.5393L112.889 14.2337L112.575 12.5153V12.7049L112.49 12.3481L112.7 14.4425L112.407 13.2857L112.595 14.3537C112.418 13.6539 112.313 12.9379 112.281 12.2169C112.321 13.9983 112.859 15.7331 113.836 17.2249C113.975 17.4481 114.123 17.6793 114.276 17.9193L114.906 18.3377L113.939 16.9353L114.002 17.1881L113.455 16.0305C113.708 16.4081 113.967 16.7849 114.232 17.1625C114.595 17.7049 115.019 18.2057 115.494 18.6537V18.6305C115.19 18.3009 114.91 17.9513 114.654 17.5833C114.738 17.6993 114.821 17.7993 114.906 17.8985L114.339 17.0801L115.035 17.9193L114.532 17.1857C115.296 18.2279 116.278 19.0926 117.409 19.7201C117.675 19.8593 117.949 19.9857 118.228 20.0969L117.933 20.0345L118.374 20.2233C118.373 20.275 118.388 20.3258 118.417 20.3689L118.291 20.3481L118.417 20.4105L118.437 20.4521L117.593 20.2505L118.346 20.4977L117.254 20.2881L117.905 20.6857L117.401 20.5601L117.759 20.7689C117.716 20.7692 117.674 20.7765 117.633 20.7905L117.654 20.8113L117.78 20.8529L118.2 20.9785C117.179 20.8264 116.206 20.4416 115.358 19.8539C114.51 19.2662 113.809 18.4914 113.309 17.5897C112.78 16.7015 112.364 15.751 112.07 14.7601L112.28 15.5561C112.211 15.3609 112.147 15.1721 112.091 14.9905C112.088 15.0137 112.078 15.0356 112.063 15.0537C112.048 15.0716 112.029 15.0854 112.008 15.0937C111.853 15.1225 111.902 15.6041 112.154 16.5393C112.298 16.8393 112.466 17.1265 112.659 17.3985C112.798 17.5937 112.938 17.7961 113.078 18.0065L112.952 17.6921L114.296 19.2641L113.519 18.2585C114.391 19.3216 115.401 20.2641 116.522 21.0609L114.884 20.0969L116.418 21.1857C115.752 20.8597 115.142 20.4301 114.611 19.9129C114.206 19.5217 113.807 19.1449 113.415 18.7809L113.625 19.0753C113.112 18.482 112.675 17.8274 112.324 17.1265C112.434 17.4889 112.567 17.9009 112.722 18.3625L111.337 15.9089C111.476 16.2713 111.637 16.6345 111.818 16.9977L111.713 16.6617C112.002 17.2545 112.34 17.8217 112.721 18.3601C113.495 19.4675 114.471 20.4198 115.598 21.1673L114.635 20.5977L116.566 21.8337L115.473 21.3105C115.914 21.6289 116.394 21.8897 116.901 22.0865C117.433 22.2673 117.972 22.4345 118.518 22.5881V22.7353C118.054 22.752 117.594 22.6354 117.195 22.3993C116.971 22.288 116.739 22.1969 116.499 22.1273L117.465 22.6297L117.087 22.5257L117.551 22.6713L117.131 22.5881C117.583 22.7531 118.046 22.8862 118.517 22.9865V23.1337L117.821 23.0913L118.517 23.2801V23.3425C117.063 23.0951 115.685 22.5218 114.485 21.6657L114.38 21.5825C113.235 20.8313 112.479 20.3649 112.112 20.1841C111.703 19.941 111.375 19.5839 111.167 19.1569C110.838 18.5594 110.529 17.9516 110.239 17.3345C109.951 16.7653 109.671 16.1924 109.398 15.6161C109.286 15.1253 109.202 14.6284 109.147 14.1281C109.034 13.1606 109.034 12.1835 109.147 11.2161C109.286 10.2553 109.513 9.30806 109.823 8.38726C110.152 7.47926 110.575 6.60726 111.083 5.78566C111.794 4.68106 112.673 3.6933 113.688 2.85766L113.288 3.10806C114.896 1.59992 116.925 0.613848 119.106 0.280055L119.63 0.153656C120.323 0.0303111 121.027 -0.0187677 121.731 0.0072555L122.89 0.0696555L123.011 0.116056H123.284L124.017 0.288056L125.322 0.598456L127.129 1.37366L127.612 1.64566L129.69 3.10806L130.594 3.98886C131.27 4.69505 131.854 5.48339 132.333 6.33526C132.836 7.17617 133.232 8.07716 133.509 9.01686C133.787 9.95766 133.949 10.9289 133.992 11.9097C134.112 13.8276 133.744 15.7448 132.921 17.4825C132.578 18.2117 132.155 18.9007 131.66 19.5369C131.617 19.6102 131.568 19.6802 131.514 19.7465C130.691 20.9558 129.604 21.9631 128.335 22.6927C127.065 23.4223 125.647 23.855 124.185 23.9585C124.004 23.9861 123.822 24 123.638 24.0001C124.255 23.8457 124.86 23.6481 125.448 23.4097ZM114.884 20.8953C114.971 20.9537 115.056 21.0169 115.136 21.0841L114.635 20.5977L112.868 18.8841C113.416 19.6681 114.098 20.3489 114.884 20.8953ZM114.506 18.5073L113.036 16.4537C113.106 16.6361 113.184 16.8177 113.268 16.9977C113.368 17.1809 113.48 17.3561 113.605 17.5225C113.815 17.8305 114.04 18.1393 114.278 18.4481L114.109 18.0705L114.506 18.5073ZM111.987 11.8241C111.973 12.3074 112.001 12.791 112.07 13.2697C112.029 12.7817 112.022 12.2921 112.049 11.8033H112.028C112.012 11.8046 111.997 11.8121 111.987 11.8241Z" fill="url(#paint0_linear_4266_2184)"/>
</g>
<defs>
<linearGradient id="paint0_linear_4266_2184" x1="114.675" y1="2.80006" x2="131.875" y2="20.0396" gradientUnits="userSpaceOnUse">
<stop stop-color="#EA5540"/>
<stop offset="1" stop-color="#8C1D82"/>
</linearGradient>
<clipPath id="clip0_4266_2184">
<rect width="174" height="24" fill="white"/>
</clipPath>
</defs>
</svg>
